<svg width="18" height="15" viewBox="0 0 18 15" fill="none" xmlns="http://www.w3.org/2000/svg">
    <path d="M17.2291 2.43423L15.8131 0.901201C15.7842 0.868785 15.7492 0.843056 15.7104 0.825654C15.6715 0.808251 15.6297 0.799557 15.5875 0.800123C15.5452 0.798802 15.5031 0.807153 15.4641 0.824603C15.4252 0.842053 15.3903 0.868185 15.3619 0.901201L5.54908 11.3089L1.97788 7.5488C1.94889 7.51674 1.91401 7.49122 1.87537 7.47378C1.83673 7.45634 1.79512 7.44734 1.75308 7.44734C1.71104 7.44734 1.66943 7.45634 1.63079 7.47378C1.59215 7.49122 1.55727 7.51674 1.52828 7.5488L0.0962799 9.05656C0.0658012 9.08794 0.041584 9.12541 0.0250504 9.16678C0.00851668 9.20815 0 9.25258 0 9.29746C0 9.34234 0.00851668 9.38677 0.0250504 9.42814C0.041584 9.46951 0.0658012 9.50699 0.0962799 9.53836L4.60028 14.2806C4.84446 14.5611 5.18078 14.7333 5.54108 14.7624C5.89463 14.7291 6.22534 14.5643 6.47388 14.2975H6.48188L17.2339 2.91772C17.2898 2.85066 17.3202 2.76423 17.3193 2.67501C17.3184 2.58578 17.2863 2.50004 17.2291 2.43423Z" fill="white"/>
    </svg>
    